<?xml version="1.0" standalone="no"?>
<!DOCTYPE svg PUBLIC "-//W3C//DTD SVG 20010904//EN"
 "http://www.w3.org/TR/2001/REC-SVG-20010904/DTD/svg10.dtd">
<svg version="1.0" xmlns="http://www.w3.org/2000/svg"
 width="1137.000000pt" height="1310.000000pt" viewBox="0 0 1137.000000 1310.000000"
 preserveAspectRatio="xMidYMid meet">

<g transform="translate(0.000000,1310.000000) scale(0.100000,-0.100000)"
fill="#000000" stroke="none">
<path d="M0 9350 l0 -3750 105 0 105 0 0 3645 0 3645 4184 0 4185 0 5 -42 c3
-24 48 -893 101 -1933 52 -1039 98 -1925 101 -1967 l6 -78 1184 0 1184 0 0
-1690 0 -1690 105 0 105 0 0 1889 0 1888 -26 39 c-15 21 -607 884 -1316 1917
l-1290 1877 -4369 0 -4369 0 0 -3750z m10031 1500 l1124 -1635 3 -67 4 -68
-1085 0 -1085 0 -6 73 c-7 81 -176 3386 -176 3438 0 32 1 32 49 -37 26 -38
554 -805 1172 -1704z"/>
<path d="M1770 9355 l0 -2385 2140 0 2140 0 0 2385 0 2385 -2140 0 -2140 0 0
-2385z m4070 0 l0 -2175 -1930 0 -1930 0 0 2175 0 2175 1930 0 1930 0 0 -2175z"/>
<path d="M3685 10686 c-385 -77 -654 -387 -672 -774 -7 -132 6 -220 48 -335
48 -133 141 -267 244 -351 l55 -44 -38 -12 c-20 -7 -80 -35 -132 -62 -425
-220 -714 -694 -747 -1224 l-6 -104 105 0 105 0 6 99 c22 326 145 614 359 837
94 98 194 169 321 229 111 52 185 72 314 85 203 20 422 8 576 -30 108 -28 285
-115 385 -190 248 -187 414 -480 453 -799 l12 -101 57 0 c32 0 78 3 104 6 l47
7 -6 66 c-11 106 -43 253 -76 348 -133 380 -445 698 -813 828 l-78 28 56 50
c109 95 194 228 241 377 40 124 46 302 16 433 -70 304 -304 545 -601 621 -91
23 -249 29 -335 12z m308 -220 c73 -23 177 -81 234 -131 67 -58 139 -167 171
-258 31 -86 41 -243 22 -340 -19 -99 -81 -217 -157 -298 -121 -128 -260 -189
-432 -189 -179 0 -300 50 -427 175 -127 125 -184 262 -184 440 0 116 20 198
72 298 81 155 236 273 408 312 77 17 221 13 293 -9z"/>
<path d="M2521 5065 c-70 -20 -111 -46 -159 -100 -68 -77 -72 -105 -72 -460 0
-374 3 -388 90 -476 68 -69 121 -89 251 -96 186 -10 318 59 369 195 18 49 20
78 20 377 0 303 -1 328 -21 380 -27 72 -92 137 -167 166 -74 29 -232 36 -311
14z m249 -137 c30 -15 53 -37 67 -63 22 -39 23 -47 23 -360 0 -313 -1 -321
-23 -360 -32 -58 -91 -85 -183 -85 -93 0 -148 27 -181 90 -23 42 -23 49 -23
355 0 306 0 313 23 355 33 63 88 90 181 90 55 0 83 -5 116 -22z"/>
<path d="M6651 5065 c-70 -20 -111 -46 -159 -100 -68 -77 -72 -105 -72 -460 0
-374 3 -388 90 -476 68 -69 121 -89 251 -96 186 -10 318 59 369 195 18 49 20
78 20 377 0 303 -1 328 -21 380 -27 72 -92 137 -167 166 -74 29 -232 36 -311
14z m249 -137 c30 -15 53 -37 67 -63 22 -39 23 -47 23 -360 0 -313 -1 -321
-23 -360 -32 -58 -91 -85 -183 -85 -93 0 -148 27 -181 90 -23 42 -23 49 -23
355 0 306 0 313 23 355 33 63 88 90 181 90 55 0 83 -5 116 -22z"/>
<path d="M9751 5065 c-70 -20 -111 -46 -159 -100 -68 -77 -72 -105 -72 -460 0
-374 3 -388 90 -476 68 -69 121 -89 251 -96 186 -10 318 59 369 195 18 49 20
78 20 377 0 303 -1 328 -21 380 -27 72 -92 137 -167 166 -74 29 -232 36 -311
14z m249 -137 c30 -15 53 -37 67 -63 22 -39 23 -47 23 -360 0 -313 -1 -321
-23 -360 -32 -58 -91 -85 -183 -85 -93 0 -148 27 -181 90 -23 42 -23 49 -23
355 0 306 0 313 23 355 33 63 88 90 181 90 55 0 83 -5 116 -22z"/>
<path d="M1260 4505 l0 -565 80 0 80 0 0 250 0 250 270 0 270 0 0 65 0 65
-270 0 -270 0 0 185 0 185 293 2 292 3 3 63 3 62 -376 0 -375 0 0 -565z"/>
<path d="M3330 4505 l0 -565 80 0 80 0 0 240 0 240 94 0 95 0 122 -240 122
-240 94 0 95 0 -35 63 c-59 107 -227 425 -227 430 0 3 12 8 28 11 42 10 127
73 156 114 37 54 56 117 56 187 0 112 -45 199 -133 259 -88 59 -131 66 -394
66 l-233 0 0 -565z m513 405 c46 -31 87 -109 87 -164 -1 -76 -57 -160 -123
-185 -16 -6 -93 -11 -173 -11 l-144 0 0 196 0 195 158 -3 c150 -3 161 -4 195
-28z"/>
<path d="M4330 4505 l0 -565 75 0 75 0 0 368 c-1 257 -5 403 -15 487 -23 187
-32 202 105 -168 l73 -198 74 3 75 3 91 249 c50 137 93 244 95 238 1 -5 -4
-73 -12 -151 -11 -99 -16 -241 -16 -486 l0 -345 75 0 75 0 0 565 0 565 -103 0
-102 0 -84 -247 c-45 -137 -85 -255 -88 -263 -3 -8 -13 12 -22 45 -9 33 -50
151 -91 263 l-74 202 -103 0 -103 0 0 -565z"/>
<path d="M5400 4505 l0 -565 80 0 80 0 0 250 0 250 270 0 270 0 0 65 0 65
-270 0 -270 0 0 185 0 185 293 2 292 3 3 63 3 62 -376 0 -375 0 0 -565z"/>
<path d="M7520 4505 l0 -565 365 0 366 0 -3 63 -3 62 -282 3 -283 2 0 500 0
500 -80 0 -80 0 0 -565z"/>
<path d="M8520 5005 l0 -65 125 0 125 0 0 -435 0 -435 -125 0 -125 0 0 -65 0
-65 335 0 335 0 0 65 0 65 -125 0 -125 0 0 435 0 435 125 0 125 0 0 65 0 65
-335 0 -335 0 0 -65z"/>
<path d="M1270 3295 l0 -105 4420 0 4420 0 0 105 0 105 -4420 0 -4420 0 0
-105z"/>
<path d="M0 1285 l0 -1285 5683 2 5682 3 0 1280 0 1280 -102 3 -103 3 0 -1181
0 -1180 -5475 0 -5475 0 -2 1178 -3 1177 -102 3 -103 3 0 -1286z"/>
<path d="M1100 1275 l0 -105 105 0 105 0 0 105 0 105 -105 0 -105 0 0 -105z"/>
<path d="M1550 1275 l0 -106 103 3 102 3 3 103 3 102 -106 0 -105 0 0 -105z"/>
<path d="M1982 1278 l3 -103 105 0 105 0 3 103 3 102 -111 0 -111 0 3 -102z"/>
<path d="M6512 1278 l3 -103 1798 -3 1797 -2 0 105 0 105 -1800 0 -1801 0 3
-102z"/>
</g>
</svg>
